<svg width="29" height="29" viewBox="0 0 29 29" fill="none" xmlns="http://www.w3.org/2000/svg">
<path fill-rule="evenodd" clip-rule="evenodd" d="M25.6016 2.26562H24.2422V0H21.9766V2.26562H7.02344V0H4.75781V2.26562H3.39844C1.52454 2.26562 0 3.79016 0 5.66406V25.6016C0 27.4755 1.52454 29 3.39844 29H25.6016C27.4755 29 29 27.4755 29 25.6016V5.66406C29 3.79016 27.4755 2.26562 25.6016 2.26562ZM26.7344 25.6016C26.7344 26.2262 26.2262 26.7344 25.6016 26.7344H3.39844C2.7738 26.7344 2.26562 26.2262 2.26562 25.6016V10.6484H26.7344V25.6016ZM2.26562 8.38281H26.7344V5.66406C26.7344 5.03943 26.2262 4.53125 25.6016 4.53125H24.2422V6.79688H21.9766V4.53125H7.02344V6.79688H4.75781V4.53125H3.39844C2.7738 4.53125 2.26562 5.03943 2.26562 5.66406V8.38281Z" fill="#A8ADB9"/>
<rect x="4.26465" y="12.7941" width="2.55882" height="2.55882" fill="#A8ADB9"/>
<rect x="9.38232" y="12.7941" width="2.55882" height="2.55882" fill="#A8ADB9"/>
<rect x="13.6471" y="12.7941" width="2.55882" height="2.55882" fill="#A8ADB9"/>
<rect x="17.9117" y="12.7941" width="2.55882" height="2.55882" fill="#A8ADB9"/>
<rect x="22.1765" y="12.7941" width="2.55882" height="2.55882" fill="#A8ADB9"/>
<rect x="4.26465" y="17.0588" width="2.55882" height="2.55882" fill="#A8ADB9"/>
<rect x="9.38232" y="17.0588" width="2.55882" height="2.55882" fill="#A8ADB9"/>
<rect x="13.6471" y="17.0588" width="2.55882" height="2.55882" fill="#A8ADB9"/>
<rect x="17.9117" y="17.0588" width="2.55882" height="2.55882" fill="#A8ADB9"/>
<rect x="4.26465" y="21.3235" width="2.55882" height="2.55882" fill="#A8ADB9"/>
<rect x="9.38232" y="21.3235" width="2.55882" height="2.55882" fill="#A8ADB9"/>
<rect x="13.6471" y="21.3235" width="2.55882" height="2.55882" fill="#A8ADB9"/>
<rect x="17.9117" y="21.3235" width="2.55882" height="2.55882" fill="#A8ADB9"/>
<rect x="22.1765" y="17.0588" width="2.55882" height="2.55882" fill="#A8ADB9"/>
</svg>
