<svg width="19" height="22" viewBox="0 0 19 22" fill="none" xmlns="http://www.w3.org/2000/svg">
<path d="M18.6334 8.28971L10.3864 0.350748C10.1512 0.124309 9.83736 0 9.49604 0C9.16141 0 8.84778 0.124309 8.61255 0.350748L0.365379 8.28971C-0.121793 8.75886 -0.121793 9.52242 0.365379 9.99122L1.11416 10.7124C1.34938 10.9387 1.6632 11.0631 1.99802 11.0631C2.33265 11.0631 2.65724 10.9387 2.89228 10.7124L7.7142 6.08059V20.7957C7.7142 21.4589 8.25377 22 8.94272 22H10.0018C10.6907 22 11.2849 21.4589 11.2849 20.7957V6.02836L16.1342 10.7124C16.3692 10.9387 16.6747 11.0631 17.0095 11.0631C17.3443 11.0631 17.6535 10.9387 17.8889 10.7124L18.6354 9.99122C19.1228 9.52224 19.1209 8.75886 18.6334 8.28971Z" fill="white"/>
</svg>
