<svg width="19" height="22" viewBox="0 0 19 22" fill="none" xmlns="http://www.w3.org/2000/svg">
<path d="M18.6334 13.7103L10.3864 21.6493C10.1512 21.8757 9.83736 22 9.49604 22C9.16141 22 8.84778 21.8757 8.61255 21.6493L0.365379 13.7103C-0.121793 13.2411 -0.121793 12.4776 0.365379 12.0088L1.11416 11.2876C1.34938 11.0613 1.6632 10.9369 1.99802 10.9369C2.33265 10.9369 2.65724 11.0613 2.89228 11.2876L7.7142 15.9194V1.20428C7.7142 0.541058 8.25377 0 8.94272 0H10.0018C10.6907 0 11.2849 0.541058 11.2849 1.20428V15.9716L16.1342 11.2876C16.3692 11.0613 16.6747 10.9369 17.0095 10.9369C17.3443 10.9369 17.6535 11.0613 17.8889 11.2876L18.6354 12.0088C19.1228 12.4778 19.1209 13.2411 18.6334 13.7103Z" fill="white"/>
</svg>
