<svg width="29" height="29" viewBox="0 0 29 29" fill="none" xmlns="http://www.w3.org/2000/svg">
<path fill-rule="evenodd" clip-rule="evenodd" d="M28.1136 14H16.8864C16.3971 14 16 13.552 16 13C16 12.448 16.3971 12 16.8864 12H28.1136C28.6029 12 29 12.448 29 13C29 13.552 28.6029 14 28.1136 14Z" fill="#A6ACB8"/>
<path fill-rule="evenodd" clip-rule="evenodd" d="M22.9997 18C22.7436 18 22.4878 17.9107 22.2929 17.7313C21.9024 17.373 21.9024 16.7927 22.2929 16.4347L26.586 12.5L22.2929 8.56509C21.9024 8.20713 21.9024 7.62669 22.2929 7.26868C22.6838 6.91044 23.3171 6.91044 23.7076 7.26868L28.7071 11.8511C29.0976 12.2091 29.0976 12.7895 28.7071 13.1475L23.7076 17.7299C23.5115 17.9107 23.2558 18 22.9997 18Z" fill="#A6ACB8"/>
<mask id="mask0" mask-type="alpha" maskUnits="userSpaceOnUse" x="0" y="0" width="12" height="29">
<path fill-rule="evenodd" clip-rule="evenodd" d="M0 0.000907898H11.9622V29H0V0.000907898Z" fill="white"/>
</mask>
<g mask="url(#mask0)">
<path fill-rule="evenodd" clip-rule="evenodd" d="M2.39254 1.81334C2.06355 1.81334 1.79439 2.08527 1.79439 2.41758V24.1669C1.79439 24.4242 1.96542 24.6634 2.2094 24.7492L9.37475 27.161C9.42622 27.1778 9.49323 27.1875 9.56989 27.1875C9.89888 27.1875 10.1679 26.9157 10.1679 26.5833V4.83404C10.1679 4.57672 9.99679 4.33753 9.7528 4.25172L2.58751 1.8399C2.53604 1.82308 2.46897 1.81334 2.39254 1.81334ZM9.56989 29C9.31385 29 9.07094 28.9637 8.82824 28.8876L1.6292 26.465C0.649682 26.1194 0 25.1975 0 24.1669V2.41758C0 1.08477 1.0731 0.000896454 2.39254 0.000896454C2.64836 0.000896454 2.89133 0.0372031 3.13419 0.113271L10.333 2.53596C11.3127 2.88153 11.9622 3.80346 11.9622 4.83404V26.5833C11.9622 27.9161 10.8894 29 9.56989 29Z" fill="#A6ACB8"/>
</g>
<mask id="mask1" mask-type="alpha" maskUnits="userSpaceOnUse" x="1" y="0" width="18" height="10">
<path fill-rule="evenodd" clip-rule="evenodd" d="M1.03796 0.000934601H18.9613V9.98119H1.03796V0.000934601Z" fill="white"/>
</mask>
<g mask="url(#mask1)">
<path fill-rule="evenodd" clip-rule="evenodd" d="M18.05 9.98119C17.5469 9.98119 17.1386 9.56207 17.1386 9.04552V3.43172C17.1386 2.57213 16.457 1.87219 15.6198 1.87219H1.9493C1.44627 1.87219 1.03796 1.45306 1.03796 0.936573C1.03796 0.420082 1.44627 0.000900269 1.9493 0.000900269H15.6198C17.4632 0.000900269 18.9613 1.5392 18.9613 3.43172V9.04552C18.9613 9.56207 18.553 9.98119 18.05 9.98119Z" fill="#A6ACB8"/>
</g>
<path fill-rule="evenodd" clip-rule="evenodd" d="M15.7002 26H10.9C10.4032 26 10 25.58 10 25.0625C10 24.545 10.4032 24.125 10.9 24.125H15.7002C16.5269 24.125 17.2 23.4237 17.2 22.5625V16.9375C17.2 16.42 17.6032 16 18.1 16C18.5968 16 19 16.42 19 16.9375V22.5625C19 24.4587 17.5206 26 15.7002 26Z" fill="#A6ACB8"/>
</svg>
