<svg width="30" height="30" viewBox="0 0 30 30" fill="none" xmlns="http://www.w3.org/2000/svg">
<mask id="mask0" mask-type="alpha" maskUnits="userSpaceOnUse" x="0" y="0" width="30" height="30">
<path fill-rule="evenodd" clip-rule="evenodd" d="M0 0H30V30H0V0Z" fill="white"/>
</mask>
<g mask="url(#mask0)">
<path fill-rule="evenodd" clip-rule="evenodd" d="M28.2389 7.78026L25.2325 10.7598L19.2402 4.76744L22.2177 1.76312C22.7331 1.24773 23.6306 1.24773 24.146 1.76312L28.2369 5.85402C28.4946 6.11168 28.6364 6.45391 28.6364 6.81813C28.6364 7.18235 28.4946 7.52458 28.2389 7.78026ZM10.9093 24.9555V23.8636C10.9093 23.6052 10.7635 23.3695 10.5324 23.2537L8.65096 22.3133L21.7543 9.20984L24.264 11.7196L10.9093 24.9555ZM9.54559 26.0768L6.28343 27.0087L2.99136 23.7166L3.92325 20.4545H5.71499L6.89016 22.8049C6.95606 22.9367 7.06325 23.0439 7.19512 23.1098L9.54552 24.285V26.0768H9.54559ZM1.67479 28.3253L2.5629 25.2165L4.78361 27.4372L1.67479 28.3253ZM18.2805 5.73589L20.7902 8.24566L7.68686 21.3491L6.74647 19.4677C6.63058 19.2366 6.39491 19.0908 6.13654 19.0908H5.04466L18.2805 5.73589ZM29.201 4.86856L25.1101 0.774203C24.0794 -0.257407 22.2863 -0.259389 21.2516 0.776185L2.9252 19.2834C2.84396 19.3654 2.78534 19.4661 2.75338 19.5766L0.0261692 29.1303C-0.0417778 29.3682 0.0248269 29.6248 0.199968 29.8001C0.329789 29.93 0.503588 30 0.682053 30C0.74463 30 0.807911 29.9913 0.869147 29.9739L10.4145 27.2443C10.525 27.2124 10.6256 27.1537 10.7075 27.0724L29.201 8.72839C29.7164 8.21262 30 7.52752 30 6.79851C30 6.06949 29.7164 5.38433 29.201 4.86856Z" fill="#A6ACB8"/>
</g>
</svg>
