<svg width="24" height="24" viewBox="0 0 34 34" fill="none" xmlns="http://www.w3.org/2000/svg">
<path fill-rule="evenodd" clip-rule="evenodd" d="M24.5601 18.4399H18.4399V24.5601C18.4399 25.355 17.795 26 17 26C16.205 26 15.5601 25.355 15.5601 24.5601V18.4399H9.43992C8.64497 18.4399 8 17.795 8 17C8 16.205 8.64497 15.5601 9.43992 15.5601H15.5601V9.43992C15.5601 8.64497 16.205 8 17 8C17.795 8 18.4399 8.64497 18.4399 9.43992V15.5601H24.5601C25.355 15.5601 26 16.205 26 17C26 17.795 25.355 18.4399 24.5601 18.4399ZM17 0C7.62583 0 0 7.62583 0 17C0 26.3742 7.62583 34 17 34C26.3742 34 34 26.3742 34 17C34 7.62583 26.3742 0 17 0Z" fill="#04B075"/>
</svg>
